<svg width="34" height="28" viewBox="0 0 34 28" fill="none" xmlns="http://www.w3.org/2000/svg">
<path d="M17.1417 18.025C17.0021 18.0256 16.8637 18.0031 16.7348 17.9591C16.6059 17.915 16.4889 17.8501 16.3908 17.7683L10.7242 13.1017C10.5365 12.9358 10.4343 12.7164 10.4392 12.4898C10.444 12.2631 10.5555 12.0468 10.7502 11.8865C10.9449 11.7262 11.2075 11.6343 11.4828 11.6303C11.758 11.6263 12.0244 11.7104 12.2258 11.865L17.1417 15.9133L28.475 6.58C28.5723 6.49403 28.6896 6.42508 28.82 6.37726C28.9503 6.32944 29.091 6.30372 29.2336 6.30165C29.3763 6.29957 29.518 6.32119 29.6503 6.3652C29.7826 6.40921 29.9027 6.4747 30.0036 6.55779C30.1045 6.64088 30.1841 6.73985 30.2375 6.84881C30.2909 6.95776 30.3172 7.07446 30.3147 7.19194C30.3121 7.30943 30.281 7.4253 30.2229 7.53264C30.1648 7.63997 30.0811 7.73657 29.9767 7.81667L17.935 17.7333C17.8364 17.8264 17.7143 17.9008 17.5773 17.9512C17.4403 18.0014 17.2917 18.0266 17.1417 18.025Z" fill="#AC92EC"/>
</svg>
