<svg width="14" height="14" viewBox="0 0 14 14" fill="none" xmlns="http://www.w3.org/2000/svg">
<path d="M7 1.3125C3.864 1.3125 1.3125 3.864 1.3125 7C1.3125 10.136 3.864 12.6875 7 12.6875C10.136 12.6875 12.6875 10.136 12.6875 7C12.6875 3.864 10.136 1.3125 7 1.3125ZM7 2.1875C9.66263 2.1875 11.8125 4.33737 11.8125 7C11.8125 9.66263 9.66263 11.8125 7 11.8125C4.33737 11.8125 2.1875 9.66263 2.1875 7C2.1875 4.33737 4.33737 2.1875 7 2.1875ZM6.95888 4.375C5.50463 4.375 4.33388 5.54575 4.33388 7C4.33388 8.45425 5.50463 9.625 6.95888 9.625C8.00844 9.625 8.90575 8.99587 9.324 8.10731L8.53125 7.7385C8.24906 8.33787 7.65975 8.75 6.95888 8.75C5.96269 8.75 5.20888 7.99619 5.20888 7C5.20888 6.00381 5.96269 5.25 6.95888 5.25C7.65975 5.25 8.2495 5.66169 8.53125 6.26194L9.32444 5.89269C8.90531 5.00412 8.00844 4.375 6.95844 4.375H6.95888Z" fill="white"/>
</svg>
