<svg width="14" height="15" viewBox="0 0 14 15" fill="none" xmlns="http://www.w3.org/2000/svg">
<path d="M12.7197 6.3575H12.2498V6.33329H6.99984V8.66663H10.2965C9.81559 10.0249 8.52321 11 6.99984 11C5.06696 11 3.49984 9.43283 3.49984 7.49996C3.49984 5.56708 5.06696 3.99996 6.99984 3.99996C7.89205 3.99996 8.70375 4.33654 9.3218 4.88633L10.9718 3.23638C9.92992 2.26542 8.53634 1.66663 6.99984 1.66663C3.77838 1.66663 1.1665 4.2785 1.1665 7.49996C1.1665 10.7214 3.77838 13.3333 6.99984 13.3333C10.2213 13.3333 12.8332 10.7214 12.8332 7.49996C12.8332 7.10883 12.7929 6.72704 12.7197 6.3575Z" fill="#FFC107"/>
<path d="M1.83936 4.78483L3.7559 6.19038C4.27448 4.90646 5.5304 3.99996 7.00011 3.99996C7.89231 3.99996 8.70402 4.33654 9.32206 4.88633L10.972 3.23638C9.93019 2.26542 8.53661 1.66663 7.00011 1.66663C4.75952 1.66663 2.81644 2.93158 1.83936 4.78483Z" fill="#FF3D00"/>
<path d="M6.99977 13.3333C8.50652 13.3333 9.8756 12.7567 10.9107 11.819L9.10531 10.2912C8.49997 10.7516 7.76027 11.0006 6.99977 11C5.48252 11 4.19422 10.0325 3.70889 8.68237L1.80664 10.148C2.77206 12.0371 4.73264 13.3333 6.99977 13.3333Z" fill="#4CAF50"/>
<path d="M12.7199 6.35758H12.25V6.33337H7V8.66671H10.2967C10.0666 9.31316 9.65223 9.87805 9.10467 10.2916L9.10554 10.291L10.911 11.8187C10.7832 11.9348 12.8333 10.4167 12.8333 7.50004C12.8333 7.10892 12.7931 6.72712 12.7199 6.35758Z" fill="#1976D2"/>
</svg>
