<svg width="55" height="61" viewBox="0 0 55 61" fill="none" xmlns="http://www.w3.org/2000/svg">
<rect x="18" y="25" width="21" height="25" fill="white"/>
<path d="M15.4999 19.5C14.8952 18.0465 15.5007 17 15.0003 16C14.5 15 41.2661 14.8512 40.5002 16C39.5003 17.5 39.9653 18.2 39.5001 19.5C38.6056 22 26.5 23.5 26.5 23.5C26.5 23.5 17.2313 23.6623 15.4999 19.5Z" fill="white"/>
<ellipse cx="27" cy="10" rx="13" ry="3" fill="white"/>
<path fill-rule="evenodd" clip-rule="evenodd" d="M27.5495 5.08334C21.7993 5.08334 16.5593 7.18969 13.4599 8.91148C13.1806 9.06662 12.9187 9.21865 12.6754 9.36573C12.1939 9.65679 11.785 9.92846 11.4583 10.1667L14.9848 15.9244L16.6446 16.6573C23.133 20.2882 31.834 20.2882 38.3224 16.6573L40.2072 15.5728L43.5416 10.1667C43.053 9.80537 42.3772 9.36704 41.5457 8.90096C41.495 8.87254 41.4438 8.84404 41.3919 8.81543C38.3059 7.11239 33.1932 5.08334 27.5495 5.08334ZM19.3475 11.6015C18.0784 11.3418 16.8314 10.9836 15.6543 10.5727C18.5588 9.1423 22.8871 7.625 27.5495 7.625C30.78 7.625 33.8343 8.35351 36.3606 9.27594C33.4 9.73947 30.2406 10.5219 27.2311 11.4876C24.863 12.2474 22.0949 12.1637 19.3475 11.6015Z" fill="#25D366"/>
<path fill-rule="evenodd" clip-rule="evenodd" d="M39.6669 18.7519L39.3548 18.9265C32.2171 22.9207 22.75 22.9207 15.6124 18.9265L15.3156 18.7605C4.59365 31.8095 -6.65459 56.2792 27.5495 55.9126C61.7302 55.5462 50.3058 31.3592 39.6669 18.7519ZM29.4608 27.9583H25.5391V29.9917C24.2647 29.9884 23.0393 30.4999 22.1223 31.4178C21.2055 32.3355 20.6694 33.5874 20.6276 34.9081C20.5857 36.2289 21.0415 37.5146 21.8983 38.4928C22.7551 39.4709 23.9457 40.0647 25.2175 40.1482L25.5391 40.1583H29.4608L29.6372 40.1746C29.8633 40.217 30.0678 40.3404 30.2151 40.5233C30.3623 40.7061 30.4431 40.9368 30.4431 41.175C30.4431 41.4132 30.3623 41.6439 30.2151 41.8267C30.0678 42.0096 29.8633 42.1329 29.6372 42.1754L29.4608 42.1917H21.6173V46.2583H25.5391V48.2917H29.4608V46.2583C30.7352 46.2616 31.9605 45.7501 32.8775 44.8322C33.7943 43.9145 34.3305 42.6626 34.3723 41.3419C34.4141 40.0211 33.9583 38.7354 33.1016 37.7572C32.2447 36.7791 31.0542 36.1853 29.7823 36.1018L29.4608 36.0917H25.5391L25.3626 36.0754C25.1365 36.033 24.932 35.9096 24.7847 35.7267C24.6375 35.5439 24.5567 35.3132 24.5567 35.075C24.5567 34.8368 24.6375 34.6061 24.7847 34.4233C24.932 34.2404 25.1365 34.117 25.3626 34.0746L25.5391 34.0583H33.3825V29.9917H29.4608V27.9583Z" fill="#25D366"/>
</svg>
