<svg width="14" height="14" viewBox="0 0 14 14" fill="none" xmlns="http://www.w3.org/2000/svg">
<path d="M8.16663 11.0833C10.3664 11.0833 11.4665 11.0833 12.1496 10.3997C12.8333 9.71658 12.8333 8.61642 12.8333 6.41667C12.8333 4.21692 12.8333 3.11675 12.1496 2.43367C11.4665 1.75 10.3664 1.75 8.16663 1.75H5.83329C3.63354 1.75 2.53338 1.75 1.85029 2.43367C1.16663 3.11675 1.16663 4.21692 1.16663 6.41667C1.16663 8.61642 1.16663 9.71658 1.85029 10.3997C2.23121 10.7812 2.74163 10.9498 3.49996 11.0238" stroke="#0C0C0C" stroke-linecap="round" stroke-linejoin="round"/>
<path d="M8.16668 11.0835C7.44568 11.0835 6.65119 11.3752 5.9261 11.7514C4.7606 12.3563 4.17785 12.6591 3.89085 12.466C3.60385 12.2735 3.6581 11.6756 3.76719 10.4803L3.79168 10.2085" stroke="#0C0C0C" stroke-linecap="round"/>
</svg>
