<svg width="233" height="121" viewBox="0 0 233 121" fill="none" xmlns="http://www.w3.org/2000/svg">
<path d="M195.48 0.289513C195.057 0.412981 192.309 1.15379 189.403 1.93575C186.496 2.71772 175.557 5.76326 165.094 8.72649C154.63 11.6486 142.74 14.9822 138.671 16.1346C134.602 17.2458 123.082 20.4971 113.041 23.3369C103.001 26.1355 88.8909 30.1276 81.5983 32.1442C74.3584 34.202 62.5739 37.4945 55.4398 39.5112C48.3057 41.5278 37.7367 44.491 31.9237 46.0961C22.4644 48.7301 12.5295 51.5287 8.1433 52.8045C3.75714 54.0392 0.7978 56.7144 0.163657 59.9245C-0.259105 62.2704 -0.259105 62.2704 5.23681 74.0822C7.77338 79.6382 10.627 85.7293 11.4725 87.6637C17.1798 100.175 24.314 115.403 25.0009 116.349C26.7977 119.025 30.9196 121 34.7245 121C36.6269 121 66.2203 112.851 149.24 89.4334C165.147 84.9885 171.488 83.1777 203.935 74.0822C214.557 71.119 224.228 68.4027 225.443 68.0323C229.618 66.8387 233 63.0524 233 59.5541C233 58.9368 232.419 57.1671 231.732 55.6443C230.463 52.8869 224.598 40.1697 214.346 17.8631C211.333 11.3193 208.427 5.3517 207.951 4.65205C205.838 1.40072 199.496 -0.821698 195.48 0.289513ZM201.61 3.41737C203.724 4.36396 205.52 5.68095 205.52 6.25713C205.52 7.20372 207.159 10.702 207.634 10.702C207.846 10.702 208.163 11.4428 208.374 12.3071C208.533 13.2125 209.642 15.9288 210.752 18.3981C230.622 60.9534 230.252 59.9657 228.561 62.4762C227.028 64.8221 228.878 64.2047 190.988 74.823C183.748 76.8396 175.874 79.0209 173.549 79.6382C171.224 80.2967 169.11 80.9964 168.793 81.2433C168.529 81.5314 167.842 81.6549 167.313 81.5726C166.679 81.4903 166.256 81.7372 166.045 82.2722C165.834 82.9307 165.569 83.0542 165.094 82.7249C164.565 82.3957 161.87 82.9719 154.683 84.9885C136.293 90.1742 137.086 89.9272 137.244 90.668C137.35 91.1208 137.033 91.3677 136.346 91.3677C135.765 91.3677 135.131 91.5323 134.972 91.7793C134.496 92.3966 133.122 92.2731 133.122 91.6146C133.122 91.2031 131.59 91.4912 127.468 92.6847C124.297 93.5901 121.232 94.4132 120.598 94.5367C119.911 94.6602 119.383 94.9894 119.383 95.2775C119.383 95.6068 118.96 95.7302 118.273 95.6068C117.533 95.4421 116.952 95.6068 116.635 96.0595C116.318 96.5122 115.789 96.6357 114.838 96.471C114.151 96.3476 113.57 96.3887 113.57 96.6357C113.57 96.8414 112.618 97.1295 111.509 97.2942C110.346 97.4176 109.078 97.788 108.708 98.0761C108.338 98.3642 107.545 98.6111 106.964 98.6523C106.383 98.6523 101.521 99.887 96.1307 101.41C90.7405 102.933 80.4357 105.855 73.143 107.871C57.9236 112.151 55.9683 112.769 55.9683 113.263C55.9683 113.468 55.4927 113.51 54.9114 113.386C54.1715 113.18 53.8545 113.304 53.8545 113.757C53.8545 114.127 53.5902 114.415 53.2732 114.415C52.9561 114.415 52.3748 114.703 51.952 115.032C51.4764 115.362 50.7894 115.65 50.3138 115.65C49.8382 115.65 49.6269 115.403 49.8382 115.032C50.261 114.168 49.4155 114.25 48.3057 115.238C47.7244 115.732 46.9317 115.979 46.4033 115.856C45.3992 115.609 39.5862 117.131 38.7936 117.872C38.4236 118.243 37.2611 118.325 35.0944 118.119C29.4928 117.666 28.8586 117.131 25.5822 110.094C24.2611 107.13 22.1473 102.603 20.9319 100.01C19.7164 97.4176 18.2367 94.9483 17.6554 94.5367C17.0741 94.1251 16.9156 93.8782 17.2855 94.0428C17.7083 94.2075 17.9197 94.0017 17.9197 93.4667C17.9197 92.9728 17.6026 92.6024 17.2327 92.6024C16.8099 92.6024 16.5457 92.0673 16.5457 91.1208C16.5457 90.2976 16.1758 89.4334 15.753 89.1453C15.3831 88.8983 14.9603 88.1575 14.9075 87.4579C14.8546 86.7994 14.5904 86.182 14.379 86.0997C12.9522 85.7293 12.4238 85.1943 13.0051 84.7416C13.5335 84.33 12.7408 81.7784 11.1026 78.8151C10.8384 78.3624 9.83435 76.2223 8.88313 74.0822C7.98476 71.9421 6.87501 69.9666 6.45225 69.7197C6.08233 69.4727 5.87095 68.9377 6.08233 68.5673C6.29371 68.0734 6.08233 67.9088 5.28965 67.9088C4.28559 67.9088 4.23274 67.8265 4.81404 67.0857C5.3425 66.4272 5.3425 66.0979 4.81404 65.3983C3.96852 64.3694 3.38722 60.9123 3.86283 59.5541C4.44413 57.6198 6.66363 56.097 10.2571 55.1093C12.1595 54.6154 13.6921 53.9981 13.6921 53.8334C13.6921 53.6277 13.9034 53.5454 14.1677 53.6688C14.9603 54.0804 19.5579 52.5576 19.2937 51.9814C19.1351 51.6933 19.2408 51.3641 19.505 51.2406C19.8221 51.076 20.0335 51.2818 20.0335 51.611C20.0335 51.9814 20.1392 52.2695 20.2449 52.2695C20.3506 52.2695 27.9074 50.1706 36.9968 47.5777C46.1391 45.0261 55.8626 42.3098 58.6106 41.569C61.3585 40.8282 63.8951 40.005 64.1593 39.7581C64.4764 39.5112 65.2691 39.2642 66.0089 39.1819C67.1715 39.0996 101.257 29.716 106.066 28.1521C106.964 27.864 107.757 27.329 107.757 26.9997C107.757 26.2178 109.131 26.1355 109.501 26.8351C109.712 27.2467 109.87 27.2467 110.452 26.8351C110.822 26.5882 111.509 26.3412 111.931 26.3412C112.777 26.3412 128.842 21.8964 129.687 21.4437C130.005 21.2791 132.066 20.7029 134.338 20.1679C136.557 19.5917 138.407 19.0155 138.407 18.8097C138.407 18.6451 138.618 18.5628 138.883 18.7274C139.2 18.8509 140.996 18.4805 143.004 17.8631C144.96 17.2869 147.443 16.5461 148.448 16.258C149.452 15.9699 155.317 14.3237 161.395 12.6363C175.187 8.8088 186.021 5.76326 191.516 4.15818C196.008 2.84118 199.76 2.59425 201.61 3.41737ZM204.464 3.54084C204.464 3.87008 204.252 4.03471 203.935 3.91124C203.671 3.78777 203.407 3.49968 203.407 3.25274C203.407 3.04696 203.671 2.88234 203.935 2.88234C204.252 2.88234 204.464 3.17043 204.464 3.54084ZM218.203 30.9096C218.203 31.1153 217.992 31.28 217.675 31.28C217.411 31.28 217.146 30.9919 217.146 30.6215C217.146 30.2922 217.411 30.1276 217.675 30.2511C217.992 30.3745 218.203 30.6626 218.203 30.9096ZM83.9763 33.3378C83.9763 33.5435 83.7649 33.7493 83.4478 33.7493C83.1836 33.7493 82.9194 33.5435 82.9194 33.3378C82.9194 33.0908 83.1836 32.9262 83.4478 32.9262C83.7649 32.9262 83.9763 33.0908 83.9763 33.3378ZM78.4275 34.984C78.269 35.1898 77.8991 35.3956 77.582 35.3956C77.3178 35.3956 77.1064 35.1898 77.1064 34.984C77.1064 34.7371 77.4763 34.5724 77.9519 34.5724C78.3747 34.5724 78.5861 34.7371 78.4275 34.984ZM228.033 65.316C227.504 65.7275 227.028 65.1102 227.504 64.5752C227.821 64.1224 227.927 64.1224 228.138 64.5752C228.244 64.8632 228.191 65.1925 228.033 65.316ZM127.309 93.8371C127.309 94.0428 127.204 94.2486 127.098 94.2486C126.94 94.2486 126.675 94.0428 126.517 93.8371C126.358 93.5901 126.464 93.4255 126.728 93.4255C127.045 93.4255 127.309 93.5901 127.309 93.8371ZM83.1836 106.184C83.3421 106.39 83.1308 106.595 82.708 106.595C82.2324 106.595 81.8625 106.39 81.8625 106.184C81.8625 105.937 82.0739 105.772 82.3381 105.772C82.6552 105.772 83.0251 105.937 83.1836 106.184Z" fill="#9A79EE"/>
<path d="M189.138 9.01468C186.073 9.87895 180.102 11.5663 175.821 12.7599C171.541 13.9534 168.159 15.0646 168.317 15.2704C168.476 15.4762 168.212 15.5173 167.789 15.3939C167.366 15.2704 161.342 16.752 154.419 18.7275C147.496 20.703 137.35 23.5839 131.801 25.1067C126.305 26.6294 119.171 28.6461 115.948 29.5515C112.777 30.4569 106.33 32.2678 101.679 33.5436C97.0291 34.8195 92.273 36.1776 91.1104 36.5892C89.9478 36.9596 86.9885 37.8239 84.5047 38.4412C82.021 39.0997 78.5861 40.0051 76.8422 40.5402C75.0983 41.034 70.3422 42.3922 66.2731 43.5445C30.5497 53.5454 21.3018 56.1383 21.0904 56.3441C20.9319 56.4675 20.2449 56.6733 19.505 56.7556C18.7652 56.7968 17.7083 57.0849 17.127 57.3318C16.1229 57.7434 16.1229 57.7434 17.127 58.0314C18.1839 58.3195 22.3587 57.4553 23.627 56.6733C23.944 56.4675 24.2611 56.3852 24.2611 56.5498C24.2611 56.7145 25.0538 56.5087 26.005 56.0971C26.9034 55.7267 27.9603 55.3975 28.2245 55.3563C28.5416 55.3152 29.1229 55.1917 29.5456 55.0682C29.9684 54.9447 32.2936 54.3274 34.6716 53.6689C37.0497 53.0516 38.8992 52.3931 38.7407 52.1873C38.5822 52.0227 39.0049 51.8992 39.6919 51.8992C41.0131 51.9815 47.2488 50.253 80.5413 40.8282C86.0901 39.2643 93.1185 37.2888 96.2892 36.4246C99.7242 35.478 101.944 34.6549 101.944 34.3256C101.944 33.7083 102.789 33.5436 103.106 34.1198C103.318 34.6137 127.415 27.7406 128.155 26.9587C128.525 26.5883 129.106 26.4237 129.635 26.5883C130.163 26.7529 131.061 26.6706 131.696 26.4237C132.33 26.1356 134.813 25.4771 137.244 24.9009C139.622 24.3247 141.578 23.6662 141.578 23.5016C141.578 23.2958 142.529 23.0489 143.744 22.9254C144.907 22.8019 146.281 22.4315 146.756 22.1023C147.232 21.773 148.025 21.5261 148.448 21.5261C149.821 21.5673 170.643 15.5585 170.643 15.1469C170.643 14.9411 170.907 14.9 171.171 15.0235C171.488 15.1469 176.667 13.8711 182.691 12.1425C188.716 10.414 194.529 8.93237 195.638 8.93237C196.695 8.89121 197.594 8.72659 197.594 8.56196C197.594 8.35618 197.858 8.23272 198.175 8.23272C198.492 8.23272 198.651 8.4385 198.545 8.72659C198.386 9.01468 198.809 9.67317 199.39 10.2082C199.972 10.7432 201.134 12.6776 201.98 14.5296C202.825 16.3816 204.781 20.6618 206.419 24.0778C208.004 27.4526 211.069 34.1198 213.236 38.8939C215.455 43.6269 218.309 49.8414 219.577 52.64C221.691 57.2083 221.902 57.8668 221.374 59.1015C220.581 60.9124 219.683 61.3651 213.236 63.1348C210.329 63.9168 207.846 64.781 207.634 65.0691C207.423 65.3161 207 65.4395 206.683 65.2749C205.785 64.8633 202.878 65.8922 202.878 66.5919C202.878 67.2092 202.984 67.2092 203.407 66.6742C203.671 66.345 203.935 66.2626 203.935 66.5096C203.935 66.7977 206.313 66.345 209.907 65.3161C213.13 64.4106 216.829 63.3817 218.098 63.0525C219.313 62.7232 220.317 62.1882 220.317 61.859C220.317 61.5297 220.528 61.3651 220.793 61.4885C221.374 61.7766 222.695 60.2539 223.171 58.7723C223.541 57.4553 223.382 57.0025 216.248 41.5691C213.5 35.5603 211.016 30.5804 210.752 30.5393C210.488 30.4569 210.276 30.0454 210.276 29.6338C210.276 28.7284 203.301 13.2949 201.768 10.8255C199.549 7.20382 196.801 6.83341 189.138 9.01468Z" fill="#9A79EE"/>
<path d="M168.793 21.6083C155.529 25.1065 148.183 27.2055 147.021 27.7817C146.07 28.2755 145.858 28.6459 146.122 29.3456C146.704 30.8272 147.443 31.2799 149.293 31.2799C150.878 31.2799 151.09 31.4446 151.671 32.9262C152.2 34.2843 152.411 34.4901 153.098 34.0785C153.732 33.6258 153.838 33.7493 153.521 34.8193C153.256 35.8071 154.313 38.5234 158.435 47.5777C161.289 53.8746 164.143 60.048 164.777 61.2826L165.834 63.5051L164.301 64.9044C163.403 65.6863 162.716 66.3448 162.716 66.4683C162.716 67.2503 163.878 68.7319 164.513 68.7319C165.834 68.7319 187.659 62.5585 191.516 61.118C195.744 59.5129 199.073 57.0436 200.976 54.0803C202.614 51.5287 203.671 47.0015 203.09 44.9437C202.878 44.1206 202.667 43.1329 202.614 42.8036C202.403 39.6757 199.073 32.6381 195.955 28.6048C189.984 20.8263 180.683 18.4393 168.793 21.6083ZM178.041 24.3657C178.041 24.9008 176.825 24.5715 176.561 23.9542C176.456 23.6661 176.667 23.5426 177.195 23.7072C177.671 23.8307 178.041 24.1599 178.041 24.3657ZM174.236 25.6416C174.87 26.1354 176.878 29.9218 178.781 33.9551C189.086 56.2616 189.297 56.9201 187.923 58.5663C187.025 59.6776 184.277 60.7065 183.167 60.3772C182.797 60.2537 182.163 59.4306 181.74 58.484C181.37 57.5374 180.842 56.7966 180.577 56.7966C180.26 56.7966 180.155 56.5497 180.313 56.2616C180.419 56.0147 180.102 54.8212 179.573 53.7099C175.557 45.026 167.472 27.082 167.208 26.2177C166.785 25.0242 167.366 24.8184 170.96 24.7361C172.545 24.695 173.391 24.9419 174.236 25.6416ZM157.96 28.6048C157.96 28.6871 157.484 28.9752 156.903 29.2221C156.269 29.4691 155.846 29.5102 155.846 29.2633C155.846 29.0575 156.269 28.7694 156.797 28.6871C157.273 28.5636 157.748 28.4813 157.854 28.4402C157.907 28.4402 157.96 28.4813 157.96 28.6048ZM156.744 30.9507C156.586 31.2799 156.427 31.1565 156.427 30.7037C156.374 30.251 156.533 30.0041 156.691 30.1687C156.85 30.2922 156.903 30.6626 156.744 30.9507ZM161.659 33.7493C161.659 33.9551 161.553 34.1608 161.447 34.1608C161.289 34.1608 161.025 33.9551 160.866 33.7493C160.708 33.5024 160.813 33.3377 161.078 33.3377C161.395 33.3377 161.659 33.5024 161.659 33.7493ZM172.545 40.54C173.126 41.6512 172.492 42.1451 171.541 41.4043C170.643 40.7046 170.748 39.9227 171.752 39.9227C172.017 39.9227 172.386 40.2108 172.545 40.54ZM172.228 44.8614C172.228 45.0672 172.122 45.273 172.017 45.273C171.858 45.273 171.594 45.0672 171.435 44.8614C171.277 44.6145 171.382 44.4498 171.647 44.4498C171.964 44.4498 172.228 44.6145 172.228 44.8614ZM200.764 47.7835C200.764 48.6066 199.972 48.8535 199.443 48.1539C198.968 47.5365 199.602 46.3842 200.236 46.7134C200.5 46.8369 200.764 47.3308 200.764 47.7835ZM161.13 48.1539C161.13 48.3597 161.025 48.5654 160.919 48.5654C160.76 48.5654 160.496 48.3597 160.338 48.1539C160.179 47.9069 160.285 47.7423 160.549 47.7423C160.866 47.7423 161.13 47.9069 161.13 48.1539ZM163.773 48.5654C163.773 48.7712 163.508 48.977 163.191 48.977C162.927 48.977 162.821 48.7712 162.98 48.5654C163.139 48.3185 163.403 48.1539 163.561 48.1539C163.667 48.1539 163.773 48.3185 163.773 48.5654ZM193.894 57.6198C193.894 57.8255 193.525 58.0313 193.102 58.0313C192.679 58.0313 192.309 57.8255 192.309 57.6198C192.309 57.3728 192.679 57.2082 193.102 57.2082C193.525 57.2082 193.894 57.3728 193.894 57.6198ZM178.939 60.583C178.781 60.9122 178.622 60.7888 178.622 60.3361C178.569 59.8833 178.728 59.6364 178.886 59.801C179.045 59.9245 179.098 60.2949 178.939 60.583Z" fill="#9A79EE"/>
<path d="M131.009 31.9795C130.586 32.103 128.102 32.8027 125.46 33.5435C122.87 34.2843 118.167 35.6013 115.049 36.4244C110.452 37.6591 109.342 38.1118 109.342 38.7703C109.342 40.1284 110.346 41.1573 111.72 41.1573C113.94 41.1573 114.521 41.61 115.736 44.244C116.37 45.6845 117.057 46.878 117.216 46.8368C118.167 46.7545 118.484 46.9603 117.903 47.2484C117.375 47.5365 117.586 48.4008 118.907 51.2817C119.805 53.2983 120.809 55.068 121.127 55.2327C121.444 55.3973 121.602 55.6442 121.391 55.7677C121.021 56.0558 123.293 61.2414 124.086 61.8588C124.403 62.1057 124.667 62.6819 124.667 63.0935C124.667 63.9577 127.257 69.9253 127.891 70.5838C128.155 70.8308 128.472 71.8185 128.683 72.8063C129 74.329 128.895 74.6583 127.574 75.7283C126.147 76.8807 126.147 76.963 126.992 77.9919C127.468 78.5681 127.944 79.0208 128.102 79.0208C128.208 79.0208 133.598 77.5392 140.098 75.7283C146.598 73.9175 153.626 71.942 155.74 71.3658C157.801 70.7896 159.704 70.1311 159.809 69.9253C160.232 69.4315 158.964 62.5584 158.488 62.5584C158.277 62.5584 158.224 62.1057 158.382 61.5295C158.594 60.6652 158.435 60.5006 157.326 60.5006C155.317 60.5006 152.781 61.3237 152.411 62.0646C152.252 62.435 151.935 63.9577 151.777 65.4393C151.407 68.773 150.931 69.4726 148.659 70.2134C146.704 70.8308 145.805 70.7073 145.805 69.7607C145.805 69.4315 145.383 68.9788 144.907 68.773C144.378 68.526 144.22 68.3203 144.537 68.3203C144.854 68.3203 142.053 61.6118 138.301 53.3806C134.496 45.1906 131.326 38.1529 131.167 37.7414C131.009 37.3298 131.326 36.6302 131.907 36.0951C133.281 34.9428 133.757 33.42 133.07 32.4323C132.541 31.6503 132.33 31.6091 131.009 31.9795ZM127.944 34.3666C127.944 34.5724 127.679 34.8193 127.362 34.9016C127.045 34.9839 126.781 34.737 126.781 34.3666C126.781 33.9962 127.045 33.7492 127.362 33.8316C127.679 33.9139 127.944 34.1608 127.944 34.3666ZM125.196 35.1897C125.196 35.519 124.984 35.807 124.667 35.807C124.403 35.807 124.139 35.519 124.139 35.1897C124.139 34.8605 124.403 34.5724 124.667 34.5724C124.984 34.5724 125.196 34.8605 125.196 35.1897ZM117.269 37.2475C117.269 37.5767 117.057 37.8648 116.74 37.8648C116.476 37.8648 116.212 37.5767 116.212 37.2475C116.212 36.9183 116.476 36.6302 116.74 36.6302C117.057 36.6302 117.269 36.9183 117.269 37.2475ZM123.082 37.0006C123.082 37.4944 122.025 38.0295 121.655 37.7414C121.285 37.4533 121.972 36.6302 122.606 36.6302C122.87 36.6302 123.082 36.7948 123.082 37.0006ZM124.456 39.6757C124.297 40.1284 124.139 40.7458 124.139 40.9927C124.139 41.2808 123.822 41.5689 123.399 41.6923C122.659 41.8981 122.606 41.075 123.029 38.6056C123.082 38.441 123.452 38.3999 123.927 38.5645C124.456 38.7291 124.667 39.0995 124.456 39.6757ZM127.838 41.9804C127.838 42.1862 127.732 42.392 127.627 42.392C127.468 42.392 127.204 42.1862 127.045 41.9804C126.887 41.7335 126.992 41.5689 127.257 41.5689C127.574 41.5689 127.838 41.7335 127.838 41.9804ZM119.911 43.4209C119.911 43.7501 119.7 44.0382 119.383 44.0382C119.118 44.0382 118.854 43.7501 118.854 43.4209C118.854 43.0916 119.118 42.8036 119.383 42.8036C119.7 42.8036 119.911 43.0916 119.911 43.4209ZM128.366 43.3797C128.366 43.709 127.996 44.0382 127.574 44.2029C127.045 44.3675 126.781 44.1617 126.781 43.6267C126.781 43.174 127.151 42.8036 127.574 42.8036C127.996 42.8036 128.366 43.0505 128.366 43.3797ZM123.452 45.9726C123.293 46.096 122.87 46.0549 122.553 45.8903C122.078 45.6433 122.078 45.4787 122.606 45.2318C123.346 44.9025 124.033 45.5199 123.452 45.9726ZM129.159 46.096C129 46.3018 129.318 46.5076 129.899 46.5076C130.639 46.5076 130.903 46.7134 130.639 47.1661C130.48 47.4953 130.057 47.7011 129.687 47.5777C129.318 47.4953 128.736 47.6188 128.419 47.8657C128.102 48.1127 127.679 48.1538 127.468 47.9892C127.257 47.8246 127.415 47.5365 127.785 47.3719C128.261 47.1249 128.314 46.9192 127.891 46.7545C126.94 46.3018 127.204 45.6845 128.419 45.6845C129 45.6845 129.318 45.8491 129.159 46.096ZM134.496 48.4008C134.655 49.3062 134.972 50.047 135.236 50.1293C136.24 50.4174 135.025 51.4463 133.704 51.4463C132.541 51.4052 132.435 51.364 133.281 50.9936C133.757 50.7878 134.179 50.2116 134.179 49.7178C134.179 49.0181 134.021 48.977 133.439 49.3885C132.805 49.7589 132.647 49.7178 132.753 49.0181C132.805 48.5242 133.017 48.1538 133.281 48.1538C133.545 48.1538 133.651 47.9069 133.492 47.5777C133.228 47.0015 133.598 46.343 134.021 46.6722C134.126 46.7545 134.338 47.5365 134.496 48.4008ZM130.216 49.8001C130.374 50.0059 130.322 50.2116 130.005 50.2116C129.74 50.2116 129.318 50.0059 129.159 49.8001C129 49.5531 129.053 49.3885 129.37 49.3885C129.635 49.3885 130.057 49.5531 130.216 49.8001ZM132.066 51.4463C132.066 51.6521 131.854 51.8579 131.537 51.8579C131.273 51.8579 131.009 51.6521 131.009 51.4463C131.009 51.1994 131.273 51.0348 131.537 51.0348C131.854 51.0348 132.066 51.1994 132.066 51.4463ZM137.35 55.3561C137.35 55.5619 137.086 55.4796 136.822 55.1503C136.557 54.8211 136.293 54.3272 136.293 54.1215C136.293 53.8745 136.557 53.998 136.822 54.3272C137.086 54.6565 137.35 55.1092 137.35 55.3561ZM132.647 56.2616C132.118 56.9612 132.118 56.9201 132.066 56.1381C132.066 55.1915 132.753 54.4507 133.017 55.1092C133.122 55.3561 132.964 55.85 132.647 56.2616ZM129.582 57.8255C129.793 58.1547 129.687 58.5251 129.423 58.6486C129.106 58.8132 128.895 58.5251 128.895 58.0724C128.895 57.0435 129.212 56.9612 129.582 57.8255ZM129.423 60.9122C129.423 61.118 129.159 61.3237 128.842 61.3237C128.578 61.3237 128.472 61.118 128.631 60.9122C128.789 60.6652 129.053 60.5006 129.212 60.5006C129.318 60.5006 129.423 60.6652 129.423 60.9122ZM133.175 62.5996C133.757 63.4639 133.175 64.1635 131.96 64.2047C131.431 64.2047 131.431 62.3938 131.907 62.0234C132.383 61.6118 132.488 61.653 133.175 62.5996ZM153.996 62.5584C154.155 62.7642 154.049 62.97 153.785 62.97C153.468 62.97 153.204 62.7642 153.204 62.5584C153.204 62.3115 153.309 62.1469 153.415 62.1469C153.574 62.1469 153.838 62.3115 153.996 62.5584ZM136.716 63.3404C136.874 63.7519 136.716 63.8343 136.082 63.6696C135.606 63.505 135.236 63.5873 135.236 63.7931C135.236 64.04 135.025 64.2047 134.708 64.2047C134.444 64.2047 134.179 63.8343 134.179 63.3404C134.179 62.723 134.444 62.5173 135.342 62.6407C135.976 62.723 136.61 63.0111 136.716 63.3404ZM159.017 67.0856C159.017 67.2914 158.647 67.4971 158.171 67.4971C157.748 67.4971 157.537 67.2914 157.695 67.0856C157.854 66.8386 158.224 66.674 158.541 66.674C158.805 66.674 159.017 66.8386 159.017 67.0856Z" fill="#9A79EE"/>
<path d="M83.3422 44.4498C73.5129 47.1661 68.0699 53.1748 67.9642 61.4884C67.9113 64.6162 69.0211 69.843 69.7609 70.2134C70.0252 70.3369 70.2365 70.7896 70.2365 71.2423C70.2365 72.3124 72.9316 76.9218 74.8869 79.1031C77.4763 82.0252 81.3869 84.7415 85.1918 86.2231C89.5779 87.9517 92.3259 88.2809 96.9234 87.7047C100.834 87.252 108.919 84.5357 107.915 84.0418C107.492 83.8361 107.44 83.548 107.81 83.1364C108.232 82.6014 108.338 82.6014 108.761 83.0952C109.131 83.548 109.606 83.3833 110.927 82.2721C113.094 80.4613 115.842 76.0987 115.155 75.5637C114.415 74.9875 114.521 74.4936 115.366 74.4936C115.895 74.4936 116.265 73.794 116.476 72.2301C117.163 68.2379 116.001 62.8465 113.517 58.237C110.135 51.899 105.431 47.7011 98.9315 45.1906C94.3868 43.462 88.0454 43.1328 83.3422 44.4498ZM98.6673 48.4831C99.0901 49.4708 97.4519 48.9358 96.8177 47.9069C96.1836 46.878 96.2364 46.878 97.2933 47.413C97.9275 47.7423 98.5616 48.2361 98.6673 48.4831ZM87.834 47.8246C89.3137 48.5242 89.8421 49.0592 89.5251 49.7177C89.208 50.4174 96.1307 65.5628 96.9762 65.9332C97.3462 66.139 97.5047 66.6329 97.3462 67.0856C97.1348 67.7029 97.3462 67.9087 98.1917 67.9087C99.4071 67.9087 99.6185 68.3202 98.7201 69.0199C98.2974 69.3491 98.8258 70.9954 100.57 74.9052C103.318 81.0374 103.529 82.3133 101.838 83.548C100.834 84.2476 100.2 84.3711 98.5088 84.1653C97.399 84.0418 96.395 83.8772 96.3421 83.8361C96.2893 83.7949 95.4966 82.0252 94.5454 79.9674C93.5942 77.8684 92.6958 76.2222 92.4844 76.3045C92.3259 76.3868 92.1673 75.9753 92.1145 75.3991C92.0616 74.7817 91.5332 73.1767 90.8462 71.8185C90.1592 70.4604 88.9438 67.8675 88.1511 66.0567C87.3584 64.2458 86.6714 63.0111 86.6714 63.2581C86.6186 63.7108 85.0332 64.0812 85.0332 63.6285C85.0332 62.9288 85.773 62.188 86.2487 62.4349C86.6186 62.5996 86.6714 62.4349 86.4072 61.8999C86.143 61.4884 85.456 59.8833 84.769 58.4017C84.1348 56.92 83.3422 55.3561 83.0251 54.9034C82.708 54.4918 82.3381 53.6276 82.1796 53.0514C81.9682 52.3929 81.3869 51.8579 80.6999 51.6932C79.5901 51.4463 79.5373 51.4051 80.4357 50.8701C80.9113 50.582 81.334 50.0058 81.334 49.6354C81.334 47.7834 85.1918 46.7134 87.834 47.8246ZM74.4642 53.0925C74.0414 53.2983 73.4601 53.5041 73.143 53.5041C72.8788 53.5041 72.9845 53.2983 73.4072 53.0925C73.83 52.8868 74.4642 52.681 74.7284 52.681C75.0455 52.681 74.8869 52.8868 74.4642 53.0925ZM71.8219 53.5041C71.8219 53.7099 71.6105 53.9157 71.2934 53.9157C71.0292 53.9157 70.765 53.7099 70.765 53.5041C70.765 53.2572 71.0292 53.0925 71.2934 53.0925C71.6105 53.0925 71.8219 53.2572 71.8219 53.5041ZM108.285 54.0803C108.285 54.4095 107.915 54.7388 107.492 54.9034C106.7 55.1092 106.383 54.3272 107.07 53.7922C107.651 53.2983 108.285 53.4629 108.285 54.0803ZM72.0861 54.7388C72.2447 54.9446 72.139 55.1503 71.8747 55.1503C71.5577 55.1503 71.2934 54.9446 71.2934 54.7388C71.2934 54.4918 71.3991 54.3272 71.5048 54.3272C71.6634 54.3272 71.9276 54.4918 72.0861 54.7388ZM96.1307 54.7388C96.1307 54.9446 95.9193 55.1503 95.6023 55.1503C95.338 55.1503 95.0738 54.9446 95.0738 54.7388C95.0738 54.4918 95.338 54.3272 95.6023 54.3272C95.9193 54.3272 96.1307 54.4918 96.1307 54.7388ZM71.8219 57.7843C71.8219 57.9078 71.6105 58.1136 71.2934 58.237C71.0292 58.3605 70.765 58.2782 70.765 58.0724C70.765 57.8255 71.0292 57.6197 71.2934 57.6197C71.6105 57.6197 71.8219 57.702 71.8219 57.7843ZM83.4479 58.4428C83.4479 58.6486 83.2365 58.8544 82.9194 58.8544C82.6552 58.8544 82.3909 58.6486 82.3909 58.4428C82.3909 58.1959 82.6552 58.0313 82.9194 58.0313C83.2365 58.0313 83.4479 58.1959 83.4479 58.4428ZM106.277 61.8176C105.907 62.1057 105.643 62.1469 105.643 61.8999C105.643 61.653 105.801 61.3237 106.013 61.2003C106.171 61.0356 106.488 60.9945 106.647 61.118C106.753 61.2414 106.594 61.5707 106.277 61.8176ZM108.285 61.0768C108.285 61.2003 108.074 61.406 107.757 61.5295C107.492 61.653 107.228 61.5707 107.228 61.3649C107.228 61.118 107.492 60.9122 107.757 60.9122C108.074 60.9122 108.285 60.9945 108.285 61.0768ZM99.8299 62.1469C99.8299 62.3526 99.6185 62.5584 99.3014 62.5584C99.0372 62.5584 98.773 62.3526 98.773 62.1469C98.773 61.8999 99.0372 61.7353 99.3014 61.7353C99.6185 61.7353 99.8299 61.8999 99.8299 62.1469ZM107.598 64.04C107.123 64.4104 106.118 63.7931 106.488 63.2992C106.7 63.0523 107.017 63.0523 107.387 63.3404C107.704 63.5873 107.81 63.8754 107.598 64.04ZM100.623 64.6162C100.781 64.822 100.675 65.0278 100.411 65.0278C100.094 65.0278 99.8299 64.822 99.8299 64.6162C99.8299 64.3693 99.9356 64.2047 100.041 64.2047C100.2 64.2047 100.464 64.3693 100.623 64.6162ZM110.399 66.2624C110.399 66.4682 110.135 66.674 109.818 66.674C109.553 66.674 109.448 66.4682 109.606 66.2624C109.765 66.0155 110.029 65.8509 110.188 65.8509C110.293 65.8509 110.399 66.0155 110.399 66.2624ZM112.883 67.1679C112.724 67.4971 112.566 67.3737 112.566 66.9209C112.513 66.4682 112.671 66.2213 112.83 66.3859C112.988 66.5094 113.041 66.8798 112.883 67.1679ZM108.972 67.9498C108.549 68.2791 108.127 68.2791 107.387 67.9498C106.541 67.5794 106.647 67.5383 108.021 67.4971C109.131 67.4971 109.395 67.6206 108.972 67.9498ZM108.814 69.5138C108.814 69.7196 108.444 69.9665 108.021 70.1311C107.228 70.3369 106.964 69.9253 107.598 69.4315C108.074 69.0199 108.814 69.0611 108.814 69.5138ZM80.33 69.9253C80.7527 69.4315 80.9113 69.4726 81.334 69.9665C82.1267 70.9131 81.9682 71.0777 80.5414 71.0777C79.5373 71.0777 79.2202 70.8719 79.2731 70.2134C79.2731 69.6784 79.4316 69.5549 79.5901 69.9253C79.8544 70.378 79.9601 70.378 80.33 69.9253ZM114.362 70.2957C114.362 70.5838 114.151 70.7896 113.887 70.7485C113.623 70.7485 113.2 70.9954 112.936 71.3658C112.407 72.1478 111.456 72.2301 111.456 71.5304C111.456 70.9131 113.2 69.5961 113.834 69.7196C114.151 69.7607 114.362 70.0488 114.362 70.2957ZM110.399 72.0243C110.399 72.2301 110.029 72.4358 109.606 72.4358C109.184 72.4358 108.814 72.2301 108.814 72.0243C108.814 71.7774 109.184 71.6127 109.606 71.6127C110.029 71.6127 110.399 71.7774 110.399 72.0243ZM106.436 78.1977C106.277 78.3623 106.436 78.6504 106.7 78.7327C107.017 78.8562 106.964 78.8973 106.594 78.8562C106.224 78.815 105.801 78.4035 105.749 77.9919C105.59 77.5392 105.749 77.3746 106.118 77.5803C106.436 77.7038 106.594 77.9919 106.436 78.1977ZM109.342 81.0786C109.342 81.2844 109.078 81.4902 108.761 81.4902C108.497 81.4902 108.391 81.2844 108.549 81.0786C108.708 80.8317 108.972 80.667 109.131 80.667C109.236 80.667 109.342 80.8317 109.342 81.0786ZM104.586 81.9017C104.586 82.1075 104.375 82.3133 104.058 82.3133C103.793 82.3133 103.529 82.1075 103.529 81.9017C103.529 81.6548 103.793 81.4902 104.058 81.4902C104.375 81.4902 104.586 81.6548 104.586 81.9017Z" fill="#9A79EE"/>
<path d="M48.6228 54.5742C48.0415 55.1504 47.513 55.7677 47.4073 55.9735C47.3017 56.1793 46.4033 56.3851 45.3992 56.4674C44.3952 56.5085 43.2326 56.7966 42.8098 57.1259C42.2814 57.4963 41.9114 57.5374 41.5415 57.2494C40.2204 56.2205 35.0944 57.4963 35.0415 58.8544C35.0415 59.1837 34.8302 59.801 34.5659 60.2537C34.3017 60.7065 34.4074 61.118 34.7773 61.3238C35.2529 61.5296 35.2001 61.6942 34.5659 61.9C33.0334 62.3527 32.7164 62.1881 33.2448 61.118C33.6676 60.2126 33.6147 60.1714 32.5578 60.4595C30.8668 60.9122 29.4928 64.2459 29.757 67.1268C30.1269 71.2012 33.509 75.2345 39.5862 78.7739C41.9114 80.1732 49.5212 83.9596 52.639 85.3589C53.0089 85.5235 53.8545 85.4 54.4886 85.1531C55.5984 84.7004 55.6512 84.7004 54.9642 85.3589C54.1187 86.1408 54.1715 86.182 56.761 87.3344C61.0414 89.1864 63.4195 91.8204 62.3626 93.3843C60.4073 96.1829 56.1268 95.4009 49.7325 91.0384L46.4561 88.7748L44.0252 89.3099C42.7041 89.5979 41.4887 90.0918 41.3301 90.3799C41.0131 91.0384 48.3057 100.792 49.3626 101.08C50.4195 101.41 53.2203 100.134 53.5902 99.1873C53.8545 98.5288 54.3829 98.3642 56.2325 98.3642C57.5536 98.3642 58.6634 98.1584 58.8219 97.8291C59.0333 97.4999 59.2447 97.4587 59.4032 97.788C60.1431 98.9404 67.013 96.5121 69.1796 94.372C70.2365 93.302 70.2365 93.2197 69.3381 92.9727C68.5983 92.7258 68.5983 92.6435 69.1796 92.6023C69.6024 92.52 70.1837 92.52 70.395 92.5612C70.6064 92.6023 71.1877 91.9027 71.6633 91.0796C73.6715 87.2932 71.0292 81.1198 65.7447 77.21C64.2122 76.0576 59.826 73.5471 56.0211 71.6128C52.1634 69.6785 47.4602 67.2503 45.5049 66.139C43.6025 65.069 41.6472 64.2047 41.1716 64.2047C40.5903 64.2047 40.3261 63.6697 40.2204 62.2292C40.1147 60.583 40.3261 60.0891 41.4358 59.266C42.5456 58.484 42.757 58.4017 42.757 58.9779C42.757 59.4306 43.1797 59.6776 43.9724 59.6776C45.2407 59.6776 48.5171 61.1592 51.952 63.3404C53.2203 64.1224 54.5943 64.6163 55.5455 64.6163C57.2366 64.6163 60.1959 63.5874 60.1959 62.97C60.1959 62.4762 56.1797 57.2905 53.5902 54.4096C52.4276 53.1338 49.9968 53.2161 48.6228 54.5742ZM51.7407 55.1504C51.7407 55.3562 51.5293 55.562 51.2122 55.562C50.948 55.562 50.6838 55.3562 50.6838 55.1504C50.6838 54.9035 50.948 54.7388 51.2122 54.7388C51.5293 54.7388 51.7407 54.9035 51.7407 55.1504ZM45.9277 56.9613C45.9277 57.0436 45.5049 57.3728 45.0293 57.6609C44.1838 58.1959 44.1309 58.1548 44.8179 57.4963C45.5049 56.8378 45.9277 56.632 45.9277 56.9613ZM52.1106 57.9078C52.0049 58.6075 51.635 59.1014 51.0537 59.1837C50.3667 59.3071 50.2081 59.1014 50.3138 58.4429C50.4724 57.7432 51.4236 56.8378 52.1106 56.7966C52.1634 56.7966 52.1634 57.2905 52.1106 57.9078ZM45.6635 58.8544C45.822 59.0602 45.7691 59.266 45.4521 59.266C45.1878 59.266 44.7651 59.0602 44.6065 58.8544C44.448 58.6075 44.5009 58.4429 44.8179 58.4429C45.0822 58.4429 45.5049 58.6075 45.6635 58.8544ZM37.3667 60.6241C36.8911 60.8711 36.4684 61.3649 36.3627 61.653C36.2041 61.9823 35.9399 61.8588 35.4643 61.3238C34.883 60.6241 34.9359 60.5007 35.8342 60.5007C36.4155 60.5007 37.0497 60.2949 37.2082 60.048C37.4196 59.801 37.7367 59.7187 37.8952 59.8422C38.0537 60.0068 37.8423 60.336 37.3667 60.6241ZM36.4155 63.5462C36.4155 63.6697 36.2041 63.8755 35.8871 63.9989C35.6228 64.1224 35.3586 64.0401 35.3586 63.8343C35.3586 63.5874 35.6228 63.3816 35.8871 63.3816C36.2041 63.3816 36.4155 63.4639 36.4155 63.5462ZM39.2692 64.822C39.0578 65.1513 38.635 65.4394 38.2123 65.4394C37.7895 65.4394 37.4724 65.1513 37.4724 64.822C37.4724 64.4928 37.948 64.2047 38.5293 64.2047C39.2163 64.2047 39.4806 64.4105 39.2692 64.822ZM36.6269 69.1846C36.4684 69.3904 36.0985 69.4727 35.8342 69.3081C35.57 69.1846 35.4643 68.8965 35.6757 68.6907C35.8342 68.4849 36.2041 68.4026 36.4684 68.5672C36.7326 68.6907 36.8383 68.9788 36.6269 69.1846ZM41.0131 74.7406C40.8545 74.8641 40.3789 74.9053 40.009 74.7818C39.5862 74.6583 39.7448 74.5349 40.3261 74.5349C40.9074 74.4937 41.2244 74.6172 41.0131 74.7406ZM57.0252 74.9053C57.0252 75.111 56.9195 75.3168 56.8138 75.3168C56.6553 75.3168 56.391 75.111 56.2325 74.9053C56.074 74.6583 56.1797 74.4937 56.4439 74.4937C56.761 74.4937 57.0252 74.6583 57.0252 74.9053ZM53.326 75.5226C53.326 75.6049 52.9561 75.7284 52.5333 75.893C52.0577 76.0165 51.7407 75.893 51.7407 75.5226C51.7407 75.1522 52.0577 75.0287 52.5333 75.1522C52.9561 75.3168 53.326 75.4403 53.326 75.5226ZM54.3829 78.1977C54.3829 78.4035 54.1715 78.6093 53.8545 78.6093C53.5902 78.6093 53.326 78.4035 53.326 78.1977C53.326 77.9508 53.5902 77.7862 53.8545 77.7862C54.1715 77.7862 54.3829 77.9508 54.3829 78.1977ZM59.4032 82.7249C59.2975 82.8895 59.7731 83.2188 60.4601 83.4657C61.9926 84.0007 62.3626 85.4823 60.8829 84.9885C60.3544 84.8239 59.6146 84.6592 59.2447 84.6592C58.8748 84.6592 58.6634 84.4123 58.8219 84.083C58.9805 83.795 58.8748 83.548 58.6105 83.548C58.2935 83.548 58.0821 83.3011 58.0821 83.013C58.0821 82.6837 58.452 82.4368 58.8748 82.4368C59.2975 82.4368 59.5089 82.5603 59.4032 82.7249ZM63.3666 95.4832C63.3666 95.689 63.2609 95.8948 63.1552 95.8948C62.9967 95.8948 62.7325 95.689 62.5739 95.4832C62.4154 95.2363 62.5211 95.0717 62.7853 95.0717C63.1024 95.0717 63.3666 95.2363 63.3666 95.4832ZM50.1553 96.3064C50.1553 96.5121 49.8911 96.7179 49.574 96.7179C49.3098 96.7179 49.2041 96.5121 49.3626 96.3064C49.5212 96.0594 49.7854 95.8948 49.9439 95.8948C50.0496 95.8948 50.1553 96.0594 50.1553 96.3064ZM54.3829 96.7179C54.3829 96.9237 54.1715 97.1295 53.8545 97.1295C53.5902 97.1295 53.326 96.9237 53.326 96.7179C53.326 96.471 53.5902 96.3064 53.8545 96.3064C54.1715 96.3064 54.3829 96.471 54.3829 96.7179ZM63.7365 96.9649C63.578 97.0883 63.1024 97.1295 62.7325 97.006C62.3097 96.8826 62.4683 96.7591 63.0496 96.7591C63.6309 96.7179 63.9479 96.8414 63.7365 96.9649Z" fill="#9A79EE"/>
<path d="M15.066 57.9492C14.9075 58.1961 15.0132 58.5254 15.3303 58.6488C16.0701 59.0192 16.3872 58.7312 15.8587 58.0727C15.5416 57.7434 15.2774 57.7023 15.066 57.9492Z" fill="#9A79EE"/>
<path d="M11.9482 59.3895C8.56606 62.1058 8.51321 61.6942 16.44 78.8151C17.6026 81.2845 18.6595 83.6715 18.818 84.0419C18.9766 84.4535 19.2937 84.7828 19.5579 84.7828C19.8221 84.7828 20.0335 85.2355 20.0335 85.8117C20.0335 86.3467 20.4034 87.5402 20.8262 88.3633C21.2489 89.2276 23.627 94.3309 26.1107 99.7635C28.5944 105.155 30.9725 110.094 31.3952 110.711C32.3993 112.234 33.6676 113.016 34.3546 112.481C34.7245 112.193 34.5131 111.699 33.5619 110.917C32.8749 110.341 32.0822 109.271 31.9237 108.612C31.7123 107.954 31.3424 107.419 31.0782 107.419C30.8139 107.419 30.6025 107.048 30.6025 106.637C30.6025 106.225 28.5416 101.451 26.0579 96.0595C23.5741 90.6269 21.3018 85.7705 21.0904 85.1943C20.8262 84.6181 19.188 80.9964 17.3912 77.1689C10.5213 62.5174 10.4685 62.1881 13.1636 60.0892C13.7977 59.5953 14.2205 58.8956 14.1148 58.5252C13.9563 57.9491 13.4807 58.1548 11.9482 59.3895Z" fill="#9A79EE"/>
<path d="M194.423 68.3615C191.358 69.2258 184.488 71.1601 179.098 72.6417C173.708 74.1645 168.846 75.5226 168.265 75.7284C166.996 76.14 161.712 77.6216 152.939 80.0498C127.626 87.0875 119.647 89.3922 119.33 89.8038C119.066 90.0918 118.748 90.2153 118.59 90.0507C118.431 89.9272 115.631 90.5446 112.354 91.45C109.078 92.3554 103.635 93.837 100.253 94.7836C95.9193 95.936 94.0169 96.6356 93.9641 97.0884C93.9641 97.5411 93.8584 97.5822 93.647 97.2118C93.3299 96.5533 92.4315 96.5533 92.4315 97.2118C92.4315 97.4999 91.6917 97.788 90.6876 97.8292C88.8381 97.9115 76.9479 101.245 76.6836 101.739C76.578 101.904 75.9967 102.068 75.3625 102.068C73.7243 102.068 69.4967 103.385 68.9682 104.044C68.5983 104.538 68.4398 104.538 68.0699 104.085C67.6999 103.632 67.5943 103.673 67.5943 104.208C67.5943 104.62 67.9113 104.949 68.3341 104.949C68.7568 104.949 72.4032 104.003 76.4194 102.85C80.4357 101.739 88.0982 99.5577 93.4884 98.0761C98.8787 96.5945 103.423 95.1952 103.582 94.9894C103.74 94.7836 104.11 94.6602 104.375 94.7425C105.326 94.9483 111.879 92.9728 112.196 92.3554C112.354 91.985 113.094 91.7792 113.992 91.8616C114.785 91.9027 115.789 91.7792 116.212 91.5735C116.635 91.3677 117.375 91.1207 117.85 91.0796C118.326 91.0384 124.35 89.3922 131.326 87.4167C138.248 85.4412 147.179 82.9719 151.09 81.9018C155 80.8318 159.175 79.6382 160.338 79.2267C161.5 78.8151 162.821 78.4447 163.297 78.3624C164.037 78.2389 168.476 77.0042 179.626 73.8764C181.529 73.3414 187.13 71.7363 192.151 70.337C198.703 68.485 201.134 67.6207 200.923 67.2503C200.553 66.5095 200.923 66.4683 194.423 68.3615Z" fill="#9A79EE"/>
<path d="M63.0496 105.278C61.8341 105.649 60.513 106.225 60.0374 106.513C59.5618 106.842 58.9276 106.966 58.6634 106.842C58.3992 106.678 57.9764 106.801 57.8179 107.048C57.6065 107.254 57.1309 107.377 56.761 107.254C56.3911 107.172 55.4398 107.336 54.6472 107.665C53.8545 107.995 52.8504 108.242 52.4805 108.242C52.0577 108.242 51.7407 108.53 51.7407 108.859C51.7407 109.6 50.8951 109.682 50.5252 108.941C50.3667 108.653 50.2082 108.735 50.2082 109.147C50.1553 109.929 49.0984 110.217 49.0984 109.476C49.0984 109.229 48.5171 109.27 47.6716 109.641C46.8261 109.929 45.3992 110.341 44.5009 110.505C43.5496 110.629 42.757 110.917 42.757 111.081C42.757 111.246 41.2245 111.616 39.322 111.904C37.0497 112.275 35.8871 112.645 35.8871 113.016C35.8871 113.345 36.3627 113.592 36.944 113.592C38.1066 113.592 43.444 112.193 45.5049 111.287C46.2448 110.958 47.196 110.711 47.6187 110.711C48.0415 110.711 52.5333 109.559 57.6065 108.118C65.0577 106.06 66.7487 105.443 66.2203 105.031C65.8504 104.784 65.4804 104.538 65.3747 104.579C65.2691 104.579 64.2122 104.908 63.0496 105.278Z" fill="#9A79EE"/>
</svg>
