<svg width="55" height="61" viewBox="0 0 55 61" fill="none" xmlns="http://www.w3.org/2000/svg">
<path d="M9.16263 12.8305L3.66776 17.1087C2.98493 17.6403 2.72147 18.5508 3.01489 19.3649L4.81685 24.3645C4.96542 24.7767 4.97451 25.2263 4.84272 25.6442L2.92231 31.7337C2.68031 32.501 2.92172 33.3387 3.53498 33.8596L9.2117 38.6811C9.45833 38.8906 9.65045 39.1568 9.77157 39.4568L12.1096 45.2486C12.4148 46.0049 13.1487 46.5 13.9642 46.5H20.068C20.4719 46.5 20.8663 46.6223 21.1994 46.8508L26.1163 50.2239C26.7981 50.6915 27.6974 50.6915 28.3791 50.2239L33.296 46.8508C33.6291 46.6223 34.0235 46.5 34.4274 46.5H41.0359C41.8514 46.5 42.5852 46.0049 42.8905 45.2486L45.243 39.4208C45.3548 39.1438 45.5273 38.8953 45.7477 38.6937L51.0908 33.8065C51.6338 33.3098 51.8602 32.555 51.6802 31.8414L50.0864 25.524C49.9998 25.1808 50.0058 24.8208 50.1039 24.4807L51.6119 19.2505C51.8311 18.4902 51.5815 17.6722 50.9752 17.1638L45.7955 12.8209C45.5443 12.6102 45.3487 12.341 45.2259 12.0369L42.8594 6.17428C42.5699 5.45725 41.8931 4.97131 41.1211 4.92631L34.3632 4.5324C33.9996 4.5112 33.6486 4.39109 33.3482 4.18502L28.3791 0.776151C27.6974 0.308454 26.7981 0.308453 26.1163 0.776151L21.144 4.18723C20.8457 4.3919 20.4974 4.51181 20.1362 4.53418L13.8735 4.92204C13.1044 4.96967 12.431 5.45497 12.1426 6.16957L9.78857 12.0011C9.65665 12.3279 9.44071 12.614 9.16263 12.8305Z" fill="#AC92EC"/>
<path d="M1.07798 51.6604L8.54416 38.9188C8.83588 38.421 9.48723 38.2727 9.96574 38.5951L20.8951 45.9595C21.3424 46.2609 21.4701 46.8626 21.1838 47.3197L13.6681 59.3183C13.2322 60.0142 12.1897 59.9172 11.8897 59.1528L9.37814 52.7531C9.20577 52.3139 8.74984 52.0549 8.28432 52.1318L2.10371 53.1526C1.26767 53.2906 0.649577 52.3915 1.07798 51.6604Z" fill="#AC92EC" stroke="#AC92EC"/>
<path d="M40.3657 58.7331L33.2594 46.3065C32.9994 45.8518 33.1343 45.2735 33.5687 44.9808L44.5383 37.5893C45.0136 37.269 45.6603 37.413 45.9549 37.9046L53.9783 51.2949C54.4007 51.9998 53.8397 52.885 53.0219 52.804L45.6459 52.0731C45.2077 52.0297 44.7928 52.2779 44.6238 52.6845L42.1572 58.6204C41.8385 59.3873 40.778 59.454 40.3657 58.7331Z" fill="#AC92EC" stroke="#AC92EC"/>
<path d="M44.4083 25.5C44.4083 34.3323 37.1813 41.5 28.2569 41.5C19.3324 41.5 12.1055 34.3323 12.1055 25.5C12.1055 16.6677 19.3324 9.5 28.2569 9.5C37.1813 9.5 44.4083 16.6677 44.4083 25.5Z" fill="#AC92EC" stroke="white"/>
<path d="M19.0314 30V23.95L19.4014 24.32H16.8014V23H22.8714V24.32H20.2714L20.6314 23.95V30H19.0314ZM27.1409 30.12C26.5876 30.12 26.0742 30.03 25.6009 29.85C25.1342 29.67 24.7276 29.4167 24.3809 29.09C24.0409 28.7633 23.7742 28.38 23.5809 27.94C23.3942 27.5 23.3009 27.02 23.3009 26.5C23.3009 25.98 23.3942 25.5 23.5809 25.06C23.7742 24.62 24.0442 24.2367 24.3909 23.91C24.7376 23.5833 25.1442 23.33 25.6109 23.15C26.0776 22.97 26.5842 22.88 27.1309 22.88C27.6842 22.88 28.1909 22.97 28.6509 23.15C29.1176 23.33 29.5209 23.5833 29.8609 23.91C30.2076 24.2367 30.4776 24.62 30.6709 25.06C30.8642 25.4933 30.9609 25.9733 30.9609 26.5C30.9609 27.02 30.8642 27.5033 30.6709 27.95C30.4776 28.39 30.2076 28.7733 29.8609 29.1C29.5209 29.42 29.1176 29.67 28.6509 29.85C28.1909 30.03 27.6876 30.12 27.1409 30.12ZM27.1309 28.74C27.4442 28.74 27.7309 28.6867 27.9909 28.58C28.2576 28.4733 28.4909 28.32 28.6909 28.12C28.8909 27.92 29.0442 27.6833 29.1509 27.41C29.2642 27.1367 29.3209 26.8333 29.3209 26.5C29.3209 26.1667 29.2642 25.8633 29.1509 25.59C29.0442 25.3167 28.8909 25.08 28.6909 24.88C28.4976 24.68 28.2676 24.5267 28.0009 24.42C27.7342 24.3133 27.4442 24.26 27.1309 24.26C26.8176 24.26 26.5276 24.3133 26.2609 24.42C26.0009 24.5267 25.7709 24.68 25.5709 24.88C25.3709 25.08 25.2142 25.3167 25.1009 25.59C24.9942 25.8633 24.9409 26.1667 24.9409 26.5C24.9409 26.8267 24.9942 27.13 25.1009 27.41C25.2142 27.6833 25.3676 27.92 25.5609 28.12C25.7609 28.32 25.9942 28.4733 26.2609 28.58C26.5276 28.6867 26.8176 28.74 27.1309 28.74ZM32.2089 30V23H38.5889V30H36.9789V23.95L37.3489 24.32H33.4489L33.8189 23.95V30H32.2089Z" fill="white"/>
</svg>
