<svg width="12" height="20" viewBox="0 0 12 20" fill="none" xmlns="http://www.w3.org/2000/svg">
<path d="M6 8C8.20805 8 10 6.20805 10 4C10 1.79195 8.20805 0 6 0C3.79195 0 2 1.79195 2 4C2 6.20805 3.79195 8 6 8ZM6 0.8C7.76805 0.8 9.2 2.23195 9.2 4C9.2 5.76805 7.76805 7.2 6 7.2C4.23195 7.2 2.8 5.76805 2.8 4C2.8 2.23195 4.23195 0.8 6 0.8Z" fill="white"/>
<path d="M6 8.7998C2.68805 8.7998 0 11.4879 0 14.7998V18.7998C0 19.4637 0.536091 19.9998 1.2 19.9998H10.8C11.4639 19.9998 12 19.4637 12 18.7998V14.7998C12 11.4879 9.31195 8.7998 6 8.7998ZM11.2 18.7998C11.2 19.0237 11.0239 19.1998 10.8 19.1998H1.2C0.976073 19.1998 0.8 19.0237 0.8 18.7998V14.7998C0.8 11.9359 3.13609 9.5998 6 9.5998C8.86391 9.5998 11.2 11.9359 11.2 14.7998V18.7998Z" fill="white"/>
</svg>
