<svg width="14" height="14" viewBox="0 0 14 14" fill="none" xmlns="http://www.w3.org/2000/svg">
<path d="M7 0C3.12667 0 0 2.93125 0 6.5625C0 8.05 0.513333 9.45 1.49333 10.5875L0.513333 13.3875C0.466667 13.5625 0.513333 13.7375 0.653333 13.8688C0.7 13.9563 0.84 14 0.933333 14C0.98 14 1.07333 14 1.12 13.9563L4.34 12.6C5.18 12.95 6.06667 13.125 7 13.125C10.8733 13.125 14 10.1938 14 6.5625C14 2.93125 10.8733 0 7 0ZM11.06 8.96875C10.8733 9.49375 10.1733 9.93125 9.56667 10.0188C9.42667 10.0625 9.28667 10.0625 9.1 10.0625C8.72667 10.0625 8.16667 9.975 7.18667 9.58125C6.06667 9.14375 4.94667 8.225 4.06 7.04375V7C3.78 6.60625 3.26667 5.8625 3.26667 5.075C3.26667 4.1125 3.78 3.63125 3.96667 3.4125C4.2 3.19375 4.52667 3.0625 4.9 3.0625C4.99333 3.0625 5.04 3.0625 5.13333 3.0625C5.46 3.0625 5.69333 3.15 5.92667 3.5875L6.11333 3.9375C6.25333 4.2875 6.44 4.68125 6.48667 4.725C6.62667 4.9875 6.62667 5.20625 6.48667 5.425C6.44 5.55625 6.34667 5.64375 6.25333 5.73125C6.20667 5.81875 6.16 5.8625 6.11333 5.8625C6.06667 5.90625 6.06667 5.90625 6.02 5.95C6.16 6.16875 6.44 6.5625 6.81333 6.86875C7.37333 7.35 7.79333 7.48125 8.02667 7.56875C8.12 7.48125 8.21333 7.30625 8.35333 7.175L8.4 7.0875C8.63333 6.78125 9.00667 6.69375 9.38 6.825C9.56667 6.9125 10.5933 7.35 10.5933 7.35L10.6867 7.39375C10.8267 7.48125 11.0133 7.525 11.1067 7.7C11.2933 8.09375 11.1533 8.6625 11.06 8.96875Z" fill="black"/>
</svg>
