<svg width="14" height="14" viewBox="0 0 14 14" fill="none" xmlns="http://www.w3.org/2000/svg">
<g clip-path="url(#clip0_1252_7650)">
<path d="M7 0C3.54375 0 0 0.74375 0 6.125C0 9.0125 1.00625 10.8063 3.0625 11.6375V13.2562C3.0625 13.5625 3.2375 13.825 3.5 13.9563C3.5875 14 3.71875 14 3.80625 14C3.98125 14 4.2 13.9125 4.33125 13.7812L5.90625 12.2063C6.25625 12.2063 6.60625 12.25 7 12.25C10.4563 12.25 14 11.5063 14 6.125C14 0.74375 10.4563 0 7 0ZM6.78125 4.4625C7.56875 4.4625 8.225 5.11875 8.225 5.90625C8.225 6.16875 8.05 6.34375 7.7875 6.34375C7.525 6.34375 7.35 6.16875 7.35 5.90625C7.35 5.6 7.0875 5.3375 6.78125 5.3375C6.51875 5.3375 6.34375 5.1625 6.34375 4.9C6.34375 4.6375 6.51875 4.4625 6.78125 4.4625ZM6.34375 3.54375C6.34375 3.28125 6.51875 3.10625 6.78125 3.10625C8.3125 3.10625 9.58125 4.375 9.58125 5.90625C9.58125 6.16875 9.40625 6.34375 9.14375 6.34375C8.88125 6.34375 8.70625 6.16875 8.70625 5.90625C8.70625 4.85625 7.83125 3.98125 6.78125 3.98125C6.51875 3.98125 6.34375 3.7625 6.34375 3.54375ZM9.93125 8.96875C9.75625 9.49375 9.1 9.93125 8.53125 10.0188C8.4 10.0625 8.26875 10.0625 8.09375 10.0625C7.74375 10.0625 7.21875 9.975 6.3 9.58125C5.25 9.14375 4.2 8.225 3.36875 7.04375V7C3.10625 6.60625 2.625 5.8625 2.625 5.075C2.625 4.1125 3.10625 3.63125 3.28125 3.4125C3.54375 3.19375 3.85 3.0625 4.2 3.0625C4.2875 3.0625 4.33125 3.0625 4.41875 3.0625C4.725 3.0625 4.94375 3.15 5.1625 3.5875L5.3375 3.9375C5.46875 4.2875 5.64375 4.68125 5.6875 4.725C5.81875 4.9875 5.81875 5.20625 5.6875 5.425C5.64375 5.55625 5.55625 5.64375 5.46875 5.73125C5.425 5.81875 5.38125 5.8625 5.3375 5.8625C5.29375 5.90625 5.29375 5.90625 5.25 5.95C5.38125 6.16875 5.64375 6.5625 5.99375 6.86875C6.51875 7.35 6.9125 7.48125 7.13125 7.56875C7.21875 7.48125 7.30625 7.30625 7.4375 7.175L7.48125 7.0875C7.7 6.78125 8.05 6.69375 8.4 6.825C8.575 6.9125 9.5375 7.35 9.5375 7.35L9.625 7.39375C9.75625 7.48125 9.93125 7.525 10.0188 7.7C10.15 8.09375 10.0188 8.6625 9.93125 8.96875ZM10.5 6.34375C10.2375 6.34375 10.0625 6.16875 10.0625 5.90625C10.0625 4.1125 8.575 2.625 6.78125 2.625C6.51875 2.625 6.34375 2.45 6.34375 2.1875C6.34375 1.925 6.51875 1.75 6.78125 1.75C9.05625 1.75 10.9375 3.63125 10.9375 5.90625C10.9375 6.16875 10.7625 6.34375 10.5 6.34375Z" fill="black"/>
</g>
<defs>
<clipPath id="clip0_1252_7650">
<rect width="14" height="14" fill="white"/>
</clipPath>
</defs>
</svg>
