<svg width="14" height="14" viewBox="0 0 14 14" fill="none" xmlns="http://www.w3.org/2000/svg">
<g clip-path="url(#clip0_408_2646)">
<path d="M13.7087 3.79588C13.6294 3.51309 13.475 3.25708 13.2619 3.05504C13.0427 2.84679 12.7741 2.69783 12.4814 2.62221C11.3859 2.33346 6.99686 2.33346 6.99686 2.33346C5.16714 2.31264 3.33786 2.4042 1.51936 2.60763C1.22664 2.68883 0.958522 2.84113 0.73886 3.05096C0.523027 3.25863 0.366693 3.51471 0.285027 3.79529C0.0888476 4.85214 -0.00646963 5.92524 0.000360024 7.00013C-0.00663998 8.07404 0.0884433 9.14679 0.285027 10.205C0.364943 10.4844 0.520693 10.7393 0.73711 10.9452C0.953527 11.1511 1.22303 11.2999 1.51936 11.3786C2.62944 11.6668 6.99686 11.6668 6.99686 11.6668C8.82891 11.6876 10.6605 11.5961 12.4814 11.3926C12.7741 11.317 13.0427 11.168 13.2619 10.9598C13.4749 10.7578 13.6292 10.5017 13.7081 10.219C13.9094 9.16252 14.0073 8.08897 14.0004 7.01354C14.0155 5.93356 13.9177 4.85495 13.7087 3.79529V3.79588ZM5.60153 8.99746V5.00338L9.25319 7.00071L5.60153 8.99746Z" fill="#0C0C0C"/>
</g>
<defs>
<clipPath id="clip0_408_2646">
<rect width="14" height="14" fill="white"/>
</clipPath>
</defs>
</svg>
